FFmpeg version SVN-r25716, Copyright (c) 2000-2010 the FFmpeg developers  built on Nov 10 2010 12:23:18 with gcc 4.1.2 20080704 (Red Hat 4.1.2-48)  configuration: --enable-libmp3lame --enable-shared --disable-mmx --arch=x86_64  libavutil     50.33. 0 / 50.33. 0  libavcore      0.12. 1 /  0.12. 1  libavcodec    52.94. 4 / 52.94. 4  libavformat   52.84. 0 / 52.84. 0  libavdevice   52. 2. 2 / 52. 2. 2  libavfilter    1.59. 0 /  1.59. 0  libswscale     0.12. 0 /  0.12. 0Input #0, avi, from '/RAID10/data/converted_video_files/11941.avi':  Duration: 00:00:21.78, start: 0.000000, bitrate: 10522 kb/s    Stream #0.0: Video: mpeg4, yuv420p, 720x480 [PAR 1:1 DAR 3:2], 25 tbr, 29.97 tbn, 25 tbc    Stream #0.1: Audio: pcm_s16le, 48000 Hz, 2 channels, s16, 1536 kb/s[buffer @ 0xa0ec610] w:720 h:480 pixfmt:yuv420pOutput #0, flv, to '/RAID10/data/converted_video_files/11941.flv':  Metadata:    encoder         : Lavf52.84.0    Stream #0.0: Video: flv, yuv420p, 720x480 [PAR 1:1 DAR 3:2], q=2-31, 600 kb/s, 1k tbn, 24 tbc    Stream #0.1: Audio: libmp3lame, 22050 Hz, 2 channels, s16, 96 kb/sStream mapping:  Stream #0.0 -> #0.0  Stream #0.1 -> #0.1Press [q] to stop encodingframe=   31 fps=  0 q=5.3 size=     239kB time=1.33 bitrate=1470.2kbits/s dup=0 drop=7    frame=   66 fps= 64 q=9.5 size=     399kB time=2.79 bitrate=1170.6kbits/s dup=0 drop=16    frame=  102 fps= 66 q=6.5 size=     533kB time=4.29 bitrate=1017.3kbits/s dup=0 drop=25    frame=  140 fps= 68 q=6.5 size=     673kB time=5.87 bitrate= 938.2kbits/s dup=0 drop=35    frame=  173 fps= 68 q=7.8 size=     799kB time=7.25 bitrate= 903.1kbits/s dup=0 drop=43    frame=  206 fps= 67 q=6.4 size=     923kB time=8.62 bitrate= 877.0kbits/s dup=0 drop=51    frame=  237 fps= 65 q=6.7 size=    1026kB time=9.92 bitrate= 847.9kbits/s dup=0 drop=59    frame=  261 fps= 61 q=6.7 size=    1117kB time=10.92 bitrate= 838.1kbits/s dup=0 drop=65    frame=  280 fps= 61 q=6.5 size=    1190kB time=11.71 bitrate= 832.5kbits/s dup=0 drop=69    frame=  307 fps= 60 q=6.6 size=    1283kB time=12.83 bitrate= 819.3kbits/s dup=0 drop=76    frame=  340 fps= 61 q=10.1 size=    1413kB time=14.21 bitrate= 814.7kbits/s dup=0 drop=84    frame=  376 fps= 62 q=6.4 size=    1543kB time=15.71 bitrate= 804.6kbits/s dup=0 drop=93    frame=  406 fps= 62 q=10.4 size=    1658kB time=16.96 bitrate= 801.0kbits/s dup=0 drop=101    frame=  438 fps= 62 q=7.2 size=    1774kB time=18.29 bitrate= 794.6kbits/s dup=0 drop=109    frame=  472 fps= 62 q=9.9 size=    1903kB time=19.71 bitrate= 791.0kbits/s dup=0 drop=117    frame=  506 fps= 62 q=9.4 size=    2028kB time=21.12 bitrate= 786.3kbits/s dup=0 drop=126    frame=  523 fps= 62 q=11.3 Lsize=    2086kB time=21.83 bitrate= 782.8kbits/s dup=0 drop=130    video:1809kB audio:256kB global headers:0kB muxing overhead 1.044183%